<?xml version="1.0" encoding="UTF-8" standalone="no"?>
<svg width="310px" height="310px" viewBox="0 0 310 310" version="1.1" xmlns="http://www.w3.org/2000/svg" xmlns:xlink="http://www.w3.org/1999/xlink" xmlns:sketch="http://www.bohemiancoding.com/sketch/ns">
    <!-- Generator: Sketch 3.3.2 (12043) - http://www.bohemiancoding.com/sketch -->
    <title>Untitled</title>
    <desc>Created with Sketch.</desc>
    <defs></defs>
    <g id="Page-1" stroke="none" stroke-width="1" fill="none" fill-rule="evenodd" sketch:type="MSPage">
        <path d="M155,310 C240.604136,310 310,240.604136 310,155 C310,69.3958638 240.604136,0 155,0 C69.3958638,0 0,69.3958638 0,155 C0,240.604136 69.3958638,310 155,310 Z M233.650474,106.568359 C227.886741,109.128933 221.69269,110.859516 215.191515,111.637848 C221.827343,107.653202 226.922967,101.343892 229.322661,93.8263318 C223.113139,97.5153722 216.234934,100.194762 208.91438,101.638924 C203.051518,95.3818475 194.699004,91.4718206 185.455485,91.4718206 C167.705891,91.4718206 153.315752,105.886457 153.315752,123.66583 C153.315752,126.189094 153.600529,128.64635 154.14831,131.002583 C127.437682,129.660018 103.756467,116.842798 87.9051971,97.3649865 C85.1387883,102.119928 83.5538905,107.650332 83.5538905,113.550386 C83.5538905,124.719677 89.2282372,134.573955 97.8517774,140.347157 C92.5831095,140.180126 87.6278686,138.731946 83.2943248,136.32061 C83.2920328,136.454924 83.2920328,136.589812 83.2920328,136.725274 C83.2920328,152.324054 94.3702737,165.33643 109.072693,168.293632 C106.375617,169.029489 103.536438,169.422673 100.605007,169.422673 C98.5342117,169.422673 96.5207153,169.221202 94.5587883,168.845238 C98.6482372,181.636054 110.517208,190.943892 124.580741,191.20391 C113.581573,199.838457 99.7237445,204.985435 84.6666423,204.985435 C82.0727044,204.985435 79.514292,204.833327 77,204.536 C91.2228248,213.670493 108.116369,219 126.265912,219 C185.380423,219 217.70638,169.942709 217.70638,127.399067 C217.70638,126.003121 217.675438,124.614637 217.613555,123.234188 C223.892409,118.695067 229.341569,113.02461 233.650474,106.568359 Z" id="Oval-1" fill="#000000" sketch:type="MSShapeGroup"></path>
    </g>
</svg>